<mxfile host="app.diagrams.net" modified="2023-01-29T05:25:11.467Z" agent="5.0 (Windows NT 10.0; Win64; x64) AppleWebKit/537.36 (KHTML, like Gecko) Chrome/108.0.0.0 Safari/537.36" etag="BD6YkWlFATMmFsFrx0E7" version="20.8.13" type="github">
  <diagram id="C5RBs43oDa-KdzZeNtuy" name="Page-1">
    <mxGraphModel dx="1434" dy="756" grid="1" gridSize="10" guides="1" tooltips="1" connect="1" arrows="1" fold="1" page="1" pageScale="1" pageWidth="827" pageHeight="1169" math="0" shadow="0">
      <root>
        <mxCell id="WIyWlLk6GJQsqaUBKTNV-0" />
        <mxCell id="WIyWlLk6GJQsqaUBKTNV-1" parent="WIyWlLk6GJQsqaUBKTNV-0" />
        <mxCell id="5urhQ8nn7uVz3p6FZDex-0" value="Chrom浏览器、手机浏览器等" style="rounded=0;whiteSpace=wrap;html=1;" vertex="1" parent="WIyWlLk6GJQsqaUBKTNV-1">
          <mxGeometry x="274" y="50" width="280" height="60" as="geometry" />
        </mxCell>
        <mxCell id="5urhQ8nn7uVz3p6FZDex-1" value="" style="shape=flexArrow;endArrow=classic;html=1;rounded=0;" edge="1" parent="WIyWlLk6GJQsqaUBKTNV-1">
          <mxGeometry width="50" height="50" relative="1" as="geometry">
            <mxPoint x="420" y="170" as="sourcePoint" />
            <mxPoint x="420" y="120" as="targetPoint" />
          </mxGeometry>
        </mxCell>
        <mxCell id="5urhQ8nn7uVz3p6FZDex-2" value="Web服务端（Tomcat）" style="rounded=0;whiteSpace=wrap;html=1;labelPosition=center;verticalLabelPosition=top;align=center;verticalAlign=bottom;" vertex="1" parent="WIyWlLk6GJQsqaUBKTNV-1">
          <mxGeometry x="260" y="200" width="328" height="220" as="geometry" />
        </mxCell>
        <mxCell id="5urhQ8nn7uVz3p6FZDex-4" value="表示层：Vue 、 Vant组件、JavaScript" style="rounded=0;whiteSpace=wrap;html=1;" vertex="1" parent="WIyWlLk6GJQsqaUBKTNV-1">
          <mxGeometry x="290" y="220" width="280" height="40" as="geometry" />
        </mxCell>
        <mxCell id="5urhQ8nn7uVz3p6FZDex-5" value="业务逻辑层：1.队伍功能、2.匹配相似用户功能、3.用户管理功能" style="rounded=0;whiteSpace=wrap;html=1;" vertex="1" parent="WIyWlLk6GJQsqaUBKTNV-1">
          <mxGeometry x="290" y="280" width="280" height="60" as="geometry" />
        </mxCell>
        <mxCell id="5urhQ8nn7uVz3p6FZDex-6" value="数据访问层：Mybatis 、 Mybatis-plus" style="rounded=0;whiteSpace=wrap;html=1;" vertex="1" parent="WIyWlLk6GJQsqaUBKTNV-1">
          <mxGeometry x="290" y="350" width="280" height="60" as="geometry" />
        </mxCell>
        <mxCell id="5urhQ8nn7uVz3p6FZDex-9" value="" style="shape=flexArrow;endArrow=classic;html=1;rounded=0;" edge="1" parent="WIyWlLk6GJQsqaUBKTNV-1">
          <mxGeometry width="50" height="50" relative="1" as="geometry">
            <mxPoint x="423.5" y="480" as="sourcePoint" />
            <mxPoint x="423.5" y="430" as="targetPoint" />
          </mxGeometry>
        </mxCell>
        <mxCell id="5urhQ8nn7uVz3p6FZDex-10" value="数据库：MySQL、Redis" style="rounded=0;whiteSpace=wrap;html=1;" vertex="1" parent="WIyWlLk6GJQsqaUBKTNV-1">
          <mxGeometry x="270" y="490" width="310" height="50" as="geometry" />
        </mxCell>
        <mxCell id="5urhQ8nn7uVz3p6FZDex-11" style="edgeStyle=orthogonalEdgeStyle;rounded=0;orthogonalLoop=1;jettySize=auto;html=1;exitX=0.5;exitY=1;exitDx=0;exitDy=0;" edge="1" parent="WIyWlLk6GJQsqaUBKTNV-1" source="5urhQ8nn7uVz3p6FZDex-10" target="5urhQ8nn7uVz3p6FZDex-10">
          <mxGeometry relative="1" as="geometry" />
        </mxCell>
      </root>
    </mxGraphModel>
  </diagram>
</mxfile>
